HIERARCHY
ROOT Hips
{
	OFFSET 0.000000 8.830580 0.000000
	CHANNELS 6 Xposition Yposition Zposition Zrotation Yrotation Xrotation 
	JOINT Spine
	{
		OFFSET 0.000000 0.010000 0.000000
		CHANNELS 3 Zrotation Yrotation Xrotation
		JOINT Spine1
		{
			OFFSET 0.000000 2.459130 0.000000
			CHANNELS 3 Zrotation Yrotation Xrotation
			JOINT Neck
			{
				OFFSET 0.000000 2.484630 0.000000
				CHANNELS 3 Zrotation Yrotation Xrotation
				JOINT Head_virtual
				{
					OFFSET 0.000000 0.000000 0.000000
					CHANNELS 3 Zrotation Yrotation Xrotation
					JOINT Head
					{
						OFFSET 0.000000 0.927525 0.000000
						CHANNELS 3 Zrotation Yrotation Xrotation
						End Site
						{
							OFFSET 0.000000 0.000000 0.000000
						}
					}
				}
				JOINT LeftUpArm_virtual
				{
					OFFSET 0.000000 0.000000 0.000000
					CHANNELS 3 Zrotation Yrotation Xrotation
					JOINT LeftUpArm
					{
						OFFSET 1.248820 0.000000 0.000000
						CHANNELS 3 Zrotation Yrotation Xrotation
						JOINT LeftForeArm
						{
							OFFSET 2.597580 0.000000 0.000000
							CHANNELS 3 Zrotation Yrotation Xrotation
							JOINT LeftHand
							{
								OFFSET 2.455420 0.000000 0.000000
								CHANNELS 3 Zrotation Yrotation Xrotation
								End Site
								{
									OFFSET 0.000000 0.000000 0.000000
								}
							}
						}
					}
				}
				JOINT RightUpArm_virtual
				{
					OFFSET -0.000000 -0.000000 -0.000000
					CHANNELS 3 Zrotation Yrotation Xrotation
					JOINT RightUpArm
					{
						OFFSET -1.248820 -0.000000 -0.000000
						CHANNELS 3 Zrotation Yrotation Xrotation
						JOINT RightForeArm
						{
							OFFSET -2.597580 -0.000000 -0.000000
							CHANNELS 3 Zrotation Yrotation Xrotation
							JOINT RightHand
							{
								OFFSET -2.455420 -0.000000 -0.000000
								CHANNELS 3 Zrotation Yrotation Xrotation
								End Site
								{
									OFFSET 0.000000 0.000000 0.000000
								}
							}
						}
					}
				}
			}
		}
	}
	JOINT LeftUpLeg
	{
		OFFSET 1.271939 0.000000 0.000000
		CHANNELS 3 Zrotation Yrotation Xrotation
		JOINT LeftLowLeg
		{
			OFFSET 0.000000 -4.342910 0.000000
			CHANNELS 3 Zrotation Yrotation Xrotation
			JOINT LeftFoot
			{
				OFFSET 0.000000 -4.487670 0.000000
				CHANNELS 3 Zrotation Yrotation Xrotation
				JOINT LeftToeBase
				{
					OFFSET 0.000000 0.000000 1.515070
					CHANNELS 3 Zrotation Yrotation Xrotation
					End Site
					{
						OFFSET 0.000000 0.000000 0.000000
					}
				}
			}
		}
	}
	JOINT RightUpLeg
	{
		OFFSET -1.271939 0.000000 0.000000
		CHANNELS 3 Zrotation Yrotation Xrotation
		JOINT RightLowLeg
		{
			OFFSET 0.000000 -4.342910 0.000000
			CHANNELS 3 Zrotation Yrotation Xrotation
			JOINT RightFoot
			{
				OFFSET 0.000000 -4.487670 0.000000
				CHANNELS 3 Zrotation Yrotation Xrotation
				JOINT RightToeBase
				{
					OFFSET 0.000000 0.000000 1.515070
					CHANNELS 3 Zrotation Yrotation Xrotation
					End Site
					{
						OFFSET 0.000000 0.000000 0.000000
					}
				}
			}
		}
	}
}
MOTION
Frames: 11
Frame Time: 0.041667
-11.396824 9.059794 46.208839 -4.811247 -27.181731 5.315203 -5.408683 -0.549941 -6.288041 13.564425 -3.526264 -2.653537 0.000000 0.000000 0.000000 -2.795561 -21.112023 6.440929 23.895570 15.312130 -81.860181 -36.474800 1.412860 6.412980 -36.367298 -6.432800 27.958300 0.000000 -19.493700 0.000000 11.716400 9.207160 -4.354860 21.537600 2.256270 15.808014 13.539600 4.131160 21.202900 0.000000 86.054604 0.000000 2.705140 24.873800 -48.663601 -0.447530 -1.607693 -3.749518 0.000000 0.000000 12.144700 -11.143744 -4.407205 2.919540 0.000000 0.000000 -29.747100 2.879267 4.313311 -16.729270 0.000000 0.000000 58.840199 19.271190 9.171019 15.835328 0.000000 0.000000 -47.968498 
-11.427175 9.062438 46.293851 -5.050006 -26.836928 5.302379 -5.429617 -0.730146 -5.787561 13.879566 -3.673312 -2.890854 0.000000 0.000000 0.000000 -2.771680 -20.818649 6.264714 23.992803 15.440915 -81.728282 -36.445301 1.224500 6.413600 -36.336700 -7.119680 28.324900 0.000000 -20.111601 0.000000 12.171300 9.069970 -4.171440 21.409300 2.255370 15.809998 13.508600 4.029590 21.008200 0.000000 86.179001 0.000000 2.766210 24.883200 -48.647999 -0.251556 -1.397789 -2.931393 0.000000 0.000000 11.850800 -11.271848 -4.988323 2.798709 0.000000 0.000000 -29.540500 3.363261 3.588939 -17.942082 0.000000 0.000000 57.323898 16.346696 7.373000 12.374224 0.000000 0.000000 -47.330200 
-11.458601 9.064197 46.379013 -5.308689 -26.546082 5.346643 -5.449777 -0.822580 -5.384727 14.242392 -3.749707 -3.003345 0.000000 0.000000 0.000000 -2.756952 -20.413869 5.766409 24.344777 15.492219 -81.508797 -36.444500 0.943474 6.327620 -36.398499 -7.715150 28.547899 0.000000 -20.732599 0.000000 12.503400 8.811810 -3.829790 21.268000 2.143720 15.809998 13.395400 3.987780 20.761900 0.000000 86.333397 0.000000 2.852540 24.927000 -48.800701 -0.044224 -1.591128 -2.131962 0.000000 0.000000 11.496900 -11.252858 -5.093727 2.550077 0.000000 0.000000 -29.895900 3.902391 3.008707 -18.910454 0.000000 0.000000 54.889000 13.318213 5.367066 9.203909 0.000000 0.000000 -45.717699 
-11.490693 9.064829 46.461680 -5.477305 -26.172121 5.463905 -5.530098 -0.931502 -5.036037 14.631521 -3.826490 -3.170826 0.000000 0.000000 0.000000 -2.705306 -20.215238 5.403970 24.595665 15.575683 -81.491083 -36.523701 0.753079 6.209280 -36.444901 -8.190910 28.875999 0.000000 -21.582001 0.000000 13.058000 8.639830 -3.773330 21.135700 2.020320 15.910004 13.210200 3.922770 20.463200 0.000000 86.528900 0.000000 2.591950 24.968599 -48.833401 0.097627 -1.815747 -1.512770 0.000000 0.000000 11.264700 -11.403552 -5.264505 2.376230 0.000000 0.000000 -29.570000 4.373603 2.458636 -19.711095 0.000000 0.000000 51.581902 10.832094 2.989314 7.030665 0.000000 0.000000 -44.881100 
-11.527132 9.062455 46.549658 -5.650798 -26.013162 5.745736 -5.636082 -0.955249 -5.140366 15.096461 -3.877892 -2.937842 0.000000 0.000000 0.000000 -2.714204 -20.002307 4.850397 24.778216 15.572673 -81.463547 -36.633400 0.596246 6.193440 -36.562401 -8.767300 28.952499 0.000000 -22.435801 0.000000 13.412500 8.330630 -4.334180 20.938700 1.938790 15.842010 13.043800 3.884930 20.139000 0.000000 86.742897 0.000000 2.857330 25.175600 -48.539299 0.235511 -1.691270 -0.880490 0.000000 0.000000 10.813400 -11.495024 -5.484721 2.169135 0.000000 0.000000 -29.432100 4.795067 2.262025 -20.376682 0.000000 0.000000 47.470402 9.833365 0.633502 6.363181 0.000000 0.000000 -43.877600 
-11.563763 9.058387 46.634254 -5.777693 -25.753775 6.031310 -5.744430 -1.024938 -5.136674 15.540861 -3.953489 -2.844244 0.000000 0.000000 0.000000 -2.678824 -19.759775 4.196390 24.967730 15.606320 -81.436045 -36.747601 0.448879 6.254790 -36.697601 -9.247000 29.164200 0.000000 -23.297199 0.000000 14.045200 8.007550 -4.630090 20.737600 1.883870 15.730988 12.884400 3.763560 19.949600 0.000000 87.078102 0.000000 2.900760 25.201900 -48.458302 0.345070 -1.797832 -0.420171 0.000000 0.000000 10.565500 -11.374978 -5.551389 1.863945 0.000000 0.000000 -29.427600 5.137318 2.212970 -20.850073 0.000000 0.000000 42.737202 8.797122 -1.667403 6.806146 0.000000 0.000000 -43.758900 
-11.602225 9.051423 46.718550 -5.815120 -25.517517 6.324747 -5.887007 -1.093117 -5.111493 15.942078 -3.998831 -2.885290 0.000000 0.000000 0.000000 -2.696339 -19.553093 3.700645 25.184919 15.615911 -81.424288 -36.866699 0.476573 6.394190 -36.859798 -9.739510 29.278299 0.000000 -24.227900 0.000000 14.196300 7.807630 -5.735050 20.521799 1.877240 15.654999 12.772900 3.537490 19.798901 0.000000 87.486198 0.000000 2.935240 25.335300 -48.696301 0.380195 -1.832969 -0.043761 0.000000 0.000000 10.424500 -11.019509 -5.551513 1.514103 0.000000 0.000000 -29.434000 5.348742 2.388045 -21.163162 0.000000 0.000000 37.595001 8.773282 -3.539918 7.364880 0.000000 0.000000 -43.385599 
-11.641957 9.042499 46.801606 -5.841685 -25.279071 6.629051 -5.951312 -1.119819 -5.134693 16.183053 -4.027978 -2.832873 0.000000 0.000000 0.000000 -2.548203 -19.281140 3.015476 25.463550 15.705960 -81.337149 -36.943802 0.392925 6.355740 -37.107101 -9.972640 29.462999 0.000000 -25.123699 0.000000 14.470400 7.468750 -6.370010 20.407900 1.878830 15.661011 12.618200 3.246400 19.507900 0.000000 87.942596 0.000000 3.072490 25.605301 -48.867699 0.415965 -1.807516 0.227217 0.000000 0.000000 10.440300 -11.264899 -5.773750 1.132044 0.000000 0.000000 -29.130000 5.438686 2.846869 -21.281139 0.000000 0.000000 32.138100 9.219929 -5.080896 8.243495 0.000000 0.000000 -42.681299 
-11.681703 9.032240 46.884359 -5.804884 -25.118868 6.775695 -6.018777 -1.131895 -4.813631 16.411532 -3.972657 -3.155470 0.000000 0.000000 0.000000 -2.624760 -18.893210 2.610886 26.015736 15.772517 -81.254404 -37.084000 0.394256 6.412060 -37.339001 -9.970430 29.693800 0.000000 -26.055201 0.000000 14.598500 7.342800 -7.277870 20.281000 1.903600 15.954987 12.441800 2.935930 19.146099 0.000000 88.412903 0.000000 3.208410 25.910900 -49.073002 0.377413 -1.834707 0.575852 0.000000 0.000000 10.599000 -11.108973 -5.802580 0.791958 0.000000 0.000000 -29.506200 5.379594 3.551543 -21.242669 0.000000 0.000000 26.807899 9.057197 -6.669748 9.605781 0.000000 0.000000 -42.206200 
-11.724026 9.021926 46.970272 -5.788790 -25.218667 6.928163 -6.086996 -0.970056 -4.667430 16.654368 -3.780024 -3.240618 0.000000 0.000000 0.000000 -2.539818 -18.604209 2.104743 26.543991 15.892929 -81.226611 -37.340801 0.340981 6.491840 -37.524399 -9.979230 30.083900 0.000000 -26.816900 0.000000 14.744000 7.104660 -8.321820 20.157801 1.839180 16.126007 12.245400 2.653200 18.784100 0.000000 88.825996 0.000000 3.441720 26.261299 -48.983700 0.326061 -1.773749 1.056486 0.000000 0.000000 10.568000 -10.869880 -5.627785 0.296530 0.000000 0.000000 -29.194500 5.172337 4.777107 -21.310723 0.000000 0.000000 21.941700 8.607821 -8.403149 11.285857 0.000000 0.000000 -42.180901 
-11.769533 9.008091 47.060255 -5.703002 -25.325814 7.072152 -6.128646 -0.819735 -4.646687 16.775838 -3.620311 -3.231045 0.000000 0.000000 0.000000 -2.327766 -18.387186 1.578150 26.944570 16.017549 -81.150908 -37.574699 0.295106 6.718000 -37.645901 -9.973710 30.471300 0.000000 -27.561701 0.000000 14.632400 6.986020 -9.018960 20.016001 1.795340 16.088989 12.109400 2.385050 18.662001 0.000000 89.216698 0.000000 3.650010 26.485300 -48.801899 0.231669 -1.619822 1.531382 0.000000 0.000000 10.612000 -11.175416 -5.789699 -0.039501 0.000000 0.000000 -29.474500 4.961993 5.656750 -21.300849 0.000000 0.000000 17.487101 8.024400 -10.120850 11.542419 0.000000 0.000000 -41.546000 
